# xmcd
#
# Track frame offsets: 
#        225
#        15919
#        26880
#        41768
#        63530
#        76788
#        97682
#        120474
#        135858
#        148980
#        166629
#        183700
#        206920
#        221027
#        238698
#        250459
#        264059
#        278121
#        306160
#
# Disc length: 4261 seconds
#
# Revision: 0
# Processed by: cddbd v1.5PL3 Copyright (c) Steve Scherf et al.
# Submitted via: ExactAudioCopy v0.95a4
#
DISCID=0810a213
DTITLE=Mojo Blues Band - 20 Years In The Blues Jungle
DYEAR=1997
DGENRE=Blues
TTITLE0=Young Fashioned Ways
TTITLE1=In The Blues Jungle
TTITLE2=Hound Dog
TTITLE3=Louisiana Train
TTITLE4=Leaking Roof Boogie
TTITLE5=Little Girl
TTITLE6=Singnals Of Love
TTITLE7=Bon Ton Roulet
TTITLE8=Strollin' With Bone
TTITLE9=Love Is A Foolish Thing
TTITLE10=Lucky Boy Lion
TTITLE11=Heed My Warning
TTITLE12=That's The Way It's Gotta Be
TTITLE13=We're Both To Blame
TTITLE14=Marack
TTITLE15=Babe (I Gotta Let You Go)
TTITLE16=Neighbors Blues
TTITLE17=I'm On My Way Back Home
TTITLE18=Dive Bomber
EXTD=
EXTT0=
EXTT1=
EXTT2=
EXTT3=
EXTT4=
EXTT5=
EXTT6=
EXTT7=
EXTT8=
EXTT9=
EXTT10=
EXTT11=
EXTT12=
EXTT13=
EXTT14=
EXTT15=
EXTT16=
EXTT17=
EXTT18=
PLAYORDER=
